<?xml version="1.0" encoding="UTF-8" standalone="no"?>
<!-- Created with Inkscape (http://www.inkscape.org/) -->

<svg
   xmlns:dc="http://purl.org/dc/elements/1.1/"
   xmlns:cc="http://creativecommons.org/ns#"
   xmlns:rdf="http://www.w3.org/1999/02/22-rdf-syntax-ns#"
   xmlns:svg="http://www.w3.org/2000/svg"
   xmlns="http://www.w3.org/2000/svg"
   xmlns:sodipodi="http://sodipodi.sourceforge.net/DTD/sodipodi-0.dtd"
   xmlns:inkscape="http://www.inkscape.org/namespaces/inkscape"
   width="41.708687mm"
   height="13.441537mm"
   viewBox="0 0 147.78669 47.627493"
   id="svg2"
   version="1.1"
   inkscape:version="0.91 r13725"
   sodipodi:docname="logo.svg">
  <defs
     id="defs4" />
  <sodipodi:namedview
     id="base"
     pagecolor="#272b30"
     bordercolor="#666666"
     borderopacity="1.0"
     inkscape:pageopacity="0"
     inkscape:pageshadow="2"
     inkscape:zoom="1"
     inkscape:cx="119.89334"
     inkscape:cy="-37.186254"
     inkscape:document-units="px"
     inkscape:current-layer="g4192"
     showgrid="false"
     inkscape:window-width="1340"
     inkscape:window-height="1044"
     inkscape:window-x="0"
     inkscape:window-y="16"
     inkscape:window-maximized="0"
     fit-margin-top="0"
     fit-margin-left="0"
     fit-margin-right="0"
     fit-margin-bottom="0" />
  <metadata
     id="metadata7">
    <rdf:RDF>
      <cc:Work
         rdf:about="">
        <dc:format>image/svg+xml</dc:format>
        <dc:type
           rdf:resource="http://purl.org/dc/dcmitype/StillImage" />
        <dc:title></dc:title>
      </cc:Work>
    </rdf:RDF>
  </metadata>
  <g
     inkscape:label="Layer 1"
     inkscape:groupmode="layer"
     id="layer1"
     transform="translate(-266.11523,-338.72834)">
    <g
       id="g4192">
      <g
         style="font-style:normal;font-variant:normal;font-weight:normal;font-stretch:normal;font-size:48.30331039px;line-height:125%;font-family:Atmosphere;-inkscape-font-specification:'Atmosphere, Normal';text-align:end;letter-spacing:0px;word-spacing:0px;writing-mode:lr-tb;text-anchor:end;fill:#ffffff;fill-opacity:1;stroke:none;stroke-width:1px;stroke-linecap:butt;stroke-linejoin:miter;stroke-opacity:1"
         id="text4152">
        <path
           d="m 320.45916,369.8361 q 1.30418,0.53134 2.84989,0.86946 1.59401,0.28982 3.13972,0.28982 1.11097,0 2.12534,-0.24152 1.01437,-0.24151 1.73892,-0.72455 0.77285,-0.48303 1.20758,-1.15928 0.48304,-0.72455 0.48304,-1.59401 0,-0.96606 -0.38643,-1.594 -0.33812,-0.62795 -0.96607,-1.06268 -0.57964,-0.43473 -1.40079,-0.72455 -0.77286,-0.33812 -1.69062,-0.62794 l -1.69061,-0.62794 q -3.09142,-1.15928 -4.49221,-2.60838 -1.4008,-1.4491 -1.4008,-3.91257 0,-3.28463 2.31856,-5.21676 2.36686,-1.93213 6.90737,-1.93213 1.88383,0 3.67106,0.38643 1.83552,0.33812 3.18801,0.82115 -0.0966,0.96607 -0.38642,1.93214 -0.24152,0.96606 -0.62794,1.78722 -1.06268,-0.38643 -2.56008,-0.72455 -1.4491,-0.38643 -3.13972,-0.38643 -1.78722,0 -3.18801,0.62794 -1.3525,0.62795 -1.3525,2.22196 0,0.82115 0.33813,1.40079 0.33812,0.57964 0.91776,1.01437 0.57964,0.38643 1.30419,0.67625 0.77285,0.28982 1.64231,0.57964 l 2.12535,0.72455 q 1.15928,0.38642 2.17365,0.91776 1.06267,0.53134 1.78722,1.35249 0.77285,0.77286 1.20758,1.93214 0.48303,1.11097 0.48303,2.70498 0,1.78722 -0.72455,3.28463 -0.72454,1.4491 -2.07704,2.51177 -1.30419,1.01437 -3.18802,1.59401 -1.88383,0.57964 -4.15408,0.57964 -2.31856,0 -4.05748,-0.33813 -1.73892,-0.28982 -3.23632,-0.82115 0.0966,-0.96607 0.38643,-1.93213 0.33812,-1.01437 0.72455,-1.98044 z"
           style="font-style:normal;font-variant:normal;font-weight:normal;font-stretch:normal;font-size:48.30331039px;line-height:125%;font-family:Aller;-inkscape-font-specification:'Aller, Normal';text-align:end;writing-mode:lr-tb;text-anchor:end;fill:#ffffff"
           id="path4251" />
        <path
           d="m 351.32874,374.37661 q -0.38642,0 -0.82115,0 -0.38643,0.0483 -0.77286,0.0483 -0.48303,0 -1.01437,-0.0483 -0.53133,0 -0.86945,-0.0483 l -8.21157,-24.7796 q 0.62795,-0.0966 1.30419,-0.0966 0.67625,-0.0483 1.25589,-0.0483 0.62794,0 1.40079,0.0483 0.77286,0 1.30419,0.0966 l 6.85907,23.04068 7.10059,-23.04068 q 1.01437,-0.14491 2.36686,-0.14491 0.53134,0 1.20759,0.0483 0.67624,0 1.35249,0.0966 l -9.61236,29.80314 q -0.67625,1.98044 -1.4008,3.33293 -0.72455,1.35249 -1.64231,2.17365 -0.91776,0.82116 -2.07704,1.15928 -1.11098,0.33812 -2.60838,0.33812 -1.11098,0 -2.22195,-0.19321 -1.06268,-0.14491 -1.88383,-0.38643 0,-1.11097 0.19321,-1.98043 0.19321,-0.86946 0.57964,-1.73892 0.43473,0.14491 1.15928,0.28982 0.77285,0.19321 1.64231,0.19321 0.62795,0 1.15928,-0.14491 0.57964,-0.0966 1.06268,-0.48303 0.48303,-0.33813 0.86945,-1.01437 0.43473,-0.67625 0.82116,-1.83553 l 1.4974,-4.68542 z"
           style="font-style:normal;font-variant:normal;font-weight:normal;font-stretch:normal;font-size:48.30331039px;line-height:125%;font-family:Aller;-inkscape-font-specification:'Aller, Normal';text-align:end;writing-mode:lr-tb;text-anchor:end;fill:#ffffff"
           id="path4253" />
        <path
           d="m 368.44245,349.54871 q 0.53134,-0.0966 1.01437,-0.14491 0.53134,-0.0483 1.06268,-0.0483 0.53133,0 0.96606,0.0483 0.48304,0.0483 1.01437,0.14491 0.14491,0.72455 0.28982,1.98044 0.14491,1.20758 0.14491,2.02873 0.48303,-0.82115 1.20758,-1.64231 0.77286,-0.82115 1.73892,-1.4491 0.96607,-0.67624 2.22196,-1.06267 1.25588,-0.43473 2.75328,-0.43473 4.2507,0 6.27944,2.46347 2.02873,2.41516 2.02873,7.19719 l 0,15.69858 q -0.53133,0.0966 -1.20758,0.14491 -0.67625,0.0483 -1.20758,0.0483 -0.53134,0 -1.20758,-0.0483 -0.62795,-0.0483 -1.15928,-0.14491 l 0,-14.39439 q 0,-3.42953 -1.06268,-5.02354 -1.06267,-1.64232 -3.38123,-1.64232 -1.35249,0 -2.56007,0.48304 -1.20759,0.48303 -2.12535,1.4974 -0.91776,1.01437 -1.4974,2.65668 -0.53134,1.59401 -0.53134,3.86427 l 0,12.55886 q -0.53133,0.0966 -1.20758,0.14491 -0.62794,0.0483 -1.15928,0.0483 -0.53134,0 -1.20758,-0.0483 -0.67625,-0.0483 -1.20759,-0.14491 l 0,-24.7796 z"
           style="font-style:normal;font-variant:normal;font-weight:normal;font-stretch:normal;font-size:48.30331039px;line-height:125%;font-family:Aller;-inkscape-font-specification:'Aller, Normal';text-align:end;writing-mode:lr-tb;text-anchor:end;fill:#ffffff"
           id="path4255" />
        <path
           d="m 412.88754,370.02931 q 0.38643,0.67625 0.67625,1.69062 0.28982,1.01437 0.33812,2.07704 -2.8499,1.11098 -6.52095,1.11098 -6.18282,0 -9.32254,-3.47784 -3.13971,-3.52614 -3.13971,-9.46745 0,-2.75329 0.77285,-5.12015 0.77285,-2.36686 2.27026,-4.10578 1.5457,-1.73892 3.81596,-2.75329 2.27025,-1.01437 5.26506,-1.01437 2.02874,0 3.57444,0.24152 1.54571,0.24151 2.94651,0.77285 0,0.82116 -0.24152,1.93213 -0.19321,1.06267 -0.57964,1.88383 -2.36686,-0.82116 -5.40997,-0.82116 -3.71936,0 -5.55488,2.46347 -1.83553,2.46347 -1.83553,6.52095 0,4.63712 2.07705,6.81077 2.07704,2.12534 5.69979,2.12534 1.4491,0 2.65668,-0.19321 1.25588,-0.19321 2.51177,-0.67625 z"
           style="font-style:normal;font-variant:normal;font-weight:normal;font-stretch:normal;font-size:48.30331039px;line-height:125%;font-family:Aller;-inkscape-font-specification:'Aller, Normal';text-align:end;writing-mode:lr-tb;text-anchor:end;fill:#ffffff"
           id="path4257" />
      </g>
      <path
         inkscape:connector-curvature="0"
         id="path4161"
         d="m 279.05902,349.11543 c -1.93213,2e-5 -3.70137,0.3214 -5.31148,0.96544 -1.57791,0.61184 -2.92964,1.51301 -4.05672,2.70449 -1.12708,1.15928 -2.01327,2.57719 -2.65731,4.2517 -0.61184,1.67452 -0.91828,3.57293 -0.91828,5.69828 0,2.31856 0.32139,4.26818 0.96544,5.84609 0.64404,1.5457 1.53023,2.80133 2.65731,3.7674 1.12708,0.93386 2.44574,1.59162 3.95924,1.97805 1.51351,0.38643 3.12362,0.58178 4.83033,0.58178 1.03048,0 1.9978,-0.0662 2.89946,-0.19498 0.90166,-0.12881 1.7398,-0.30605 2.51266,-0.53147 l 0,11.54438 c 0.19321,0.0322 0.45158,0.0502 0.77361,0.0502 0.35422,0.0322 0.62755,0.0472 0.82077,0.0472 0.16101,0 0.41624,-0.0145 0.77047,-0.0472 0.35422,0 0.63071,-0.0182 0.82392,-0.0502 l 0,-15.24573 -4.05044,1.05034 c -0.11222,0.0287 -0.21394,0.0607 -0.33334,0.0881 l -0.16037,0.0409 0,-0.01 c -0.34735,0.0761 -0.70418,0.14829 -1.11009,0.21383 -0.99827,0.16101 -2.02861,0.24215 -3.09128,0.24215 -1.32029,0 -2.52789,-0.17724 -3.62275,-0.53147 -1.06269,-0.35422 -1.99378,-0.9009 -2.79884,-1.64155 -0.80505,-0.74065 -1.43601,-1.67489 -1.88684,-2.80196 -0.41863,-1.12708 -0.6258,-2.47882 -0.6258,-4.05673 0,-1.64231 0.1922,-3.14135 0.57863,-4.49385 0.41862,-1.35249 1.03148,-2.52698 1.83654,-3.52525 0.80505,-0.99827 1.81728,-1.77024 3.04096,-2.31769 1.25589,-0.54742 2.70687,-0.82391 4.34918,-0.82391 0.90167,0 1.65868,0.033 2.27052,0.0974 0.483,0.0483 1.14725,0.16858 1.81137,0.28932 l 3.79257,0.51889 0,-2.59442 c -0.61184,-0.19321 -1.20973,-0.35548 -1.78937,-0.48429 -0.57964,-0.12881 -1.18934,-0.23989 -1.83338,-0.33649 -0.61184,-0.0966 -1.29086,-0.16277 -2.03151,-0.19497 -0.70845,-0.0644 -1.5135,-0.0943 -2.41516,-0.0943 z"
         style="font-style:normal;font-variant:normal;font-weight:normal;font-stretch:normal;font-size:30px;line-height:125%;font-family:'Aller Light';-inkscape-font-specification:'Aller Light, Normal';text-align:end;letter-spacing:0px;word-spacing:0px;writing-mode:lr-tb;text-anchor:end;fill:#ffffff;fill-opacity:1;stroke:none;stroke-width:1px;stroke-linecap:butt;stroke-linejoin:miter;stroke-opacity:1" />
      <path
         sodipodi:nodetypes="cccccccccsscscccsccccssscccscccccc"
         inkscape:connector-curvature="0"
         id="path4163"
         d="m 291.9012,338.72834 c -0.19322,0 -0.46971,0.0145 -0.82393,0.0472 -0.32202,0 -0.57726,0.0182 -0.77047,0.0502 l 0,24.08561 c 1.3052,-2.24633 2.61772,-4.4977 3.91244,-6.7455 0.0415,-0.0829 0.0955,-0.14297 0.13831,-0.22327 l 0.16352,-0.28302 0,0.0161 c 0.45708,-0.78778 0.97186,-1.46788 1.5818,-1.97176 0.77286,-0.61184 1.611,-1.04744 2.51266,-1.30506 0.90166,-0.25762 1.73665,-0.38681 2.5095,-0.38681 2.47957,0 4.26693,0.83814 5.3618,2.51266 1.12708,1.67451 1.69187,3.97545 1.69187,6.90586 0,1.86772 -0.27333,3.47783 -0.82077,4.83033 -0.51523,1.32029 -1.2242,2.4168 -2.12586,3.28626 -0.86946,0.86946 -1.8998,1.51225 -3.09128,1.93088 -1.15928,0.41863 -2.38182,0.62894 -3.66993,0.62894 -0.93386,0 -1.82005,-0.048 -2.65731,-0.14459 -1.8854,-0.45075 -3.4979,-0.92367 -5.50644,-1.42134 l 0,3.06298 c 0.86946,0.32202 1.98095,0.61348 3.33342,0.87109 1.3525,0.28983 2.75229,0.43398 4.20139,0.43398 4.44391,0 7.84137,-1.20758 10.19213,-3.62274 2.35076,-2.41517 3.52526,-5.76458 3.52526,-10.04748 0,-2.12534 -0.25838,-3.94577 -0.77361,-5.45927 -0.48304,-1.5135 -1.17387,-2.76915 -2.07553,-3.76742 -0.86946,-0.99827 -1.93289,-1.72219 -3.18878,-2.17302 -1.25588,-0.48303 -2.64071,-0.72329 -4.15421,-0.72329 -2.02874,0 -3.6869,0.4175 -4.97498,1.25476 -1.25589,0.80505 -2.22321,1.72119 -2.89946,2.75166 l 0,-14.29603 c -0.19321,-0.0322 -0.46656,-0.0502 -0.82079,-0.0502 -0.35422,-0.0322 -0.60944,-0.0472 -0.77045,-0.0472 z"
         style="font-style:normal;font-variant:normal;font-weight:normal;font-stretch:normal;font-size:30px;line-height:125%;font-family:'Aller Light';-inkscape-font-specification:'Aller Light, Normal';text-align:end;letter-spacing:0px;word-spacing:0px;writing-mode:lr-tb;text-anchor:end;fill:#ffffff;fill-opacity:1;stroke:none;stroke-width:1px;stroke-linecap:butt;stroke-linejoin:miter;stroke-opacity:1" />
      <path
         sodipodi:nodetypes="cccccccccsscscccsccccssscccscccccc"
         inkscape:connector-curvature="0"
         id="path4163-7"
         d="m 300.90443,490.04171 c -0.19322,0 -0.46971,0.0145 -0.82393,0.0472 -0.32202,0 -0.57726,0.0182 -0.77047,0.0502 l 0,24.08561 c 1.3052,-2.24633 2.61772,-4.4977 3.91244,-6.7455 0.0415,-0.0829 0.0955,-0.14297 0.13831,-0.22327 l 0.16352,-0.28302 0,0.0161 c 0.45708,-0.78778 0.97186,-1.46788 1.5818,-1.97176 0.77286,-0.61184 1.611,-1.04744 2.51266,-1.30506 0.90166,-0.25762 1.73665,-0.38681 2.5095,-0.38681 2.47957,0 4.26693,0.83814 5.3618,2.51266 1.12708,1.67451 1.69187,3.97545 1.69187,6.90586 0,1.86772 -0.27333,3.47783 -0.82077,4.83033 -0.51523,1.32029 -1.2242,2.4168 -2.12586,3.28626 -0.86946,0.86946 -1.8998,1.51225 -3.09128,1.93088 -1.15928,0.41863 -2.38182,0.62894 -3.66993,0.62894 -0.93386,0 -1.82005,-0.048 -2.65731,-0.14459 -1.8854,-0.45075 -3.4979,-0.92367 -5.50644,-1.42134 l 0,3.06298 c 0.86946,0.32202 1.98095,0.61348 3.33342,0.87109 1.3525,0.28983 2.75229,0.43398 4.20139,0.43398 4.44391,0 7.84137,-1.20758 10.19213,-3.62274 2.35076,-2.41517 3.52526,-5.76458 3.52526,-10.04748 0,-2.12534 -0.25838,-3.94577 -0.77361,-5.45927 -0.48304,-1.5135 -1.17387,-2.76915 -2.07553,-3.76742 -0.86946,-0.99827 -1.93289,-1.72219 -3.18878,-2.17302 -1.25588,-0.48303 -2.64071,-0.72329 -4.15421,-0.72329 -2.02874,0 -3.6869,0.4175 -4.97498,1.25476 -1.25589,0.80505 -2.22321,1.72119 -2.89946,2.75166 l 0,-14.29603 c -0.19321,-0.0322 -0.46656,-0.0502 -0.82079,-0.0502 -0.35422,-0.0322 -0.60944,-0.0472 -0.77045,-0.0472 z"
         style="font-style:normal;font-variant:normal;font-weight:normal;font-stretch:normal;font-size:30px;line-height:125%;font-family:'Aller Light';-inkscape-font-specification:'Aller Light, Normal';text-align:end;letter-spacing:0px;word-spacing:0px;writing-mode:lr-tb;text-anchor:end;fill:#ffffff;fill-opacity:1;stroke:none;stroke-width:1px;stroke-linecap:butt;stroke-linejoin:miter;stroke-opacity:1" />
      <path
         style="font-style:normal;font-variant:normal;font-weight:normal;font-stretch:normal;font-size:30px;line-height:125%;font-family:'Aller Light';-inkscape-font-specification:'Aller Light, Normal';text-align:end;letter-spacing:0px;word-spacing:0px;writing-mode:lr-tb;text-anchor:end;fill:#ffffff;fill-opacity:1;stroke:none;stroke-width:1px;stroke-linecap:butt;stroke-linejoin:miter;stroke-opacity:1"
         d="m 294.71813,545.22246 c 0.19322,0 0.46971,-0.0145 0.82393,-0.0472 0.32202,0 0.57726,-0.0182 0.77047,-0.0502 l 0,-24.08561 c -1.3052,2.24633 -2.61772,4.4977 -3.91244,6.7455 -0.0415,0.0829 -0.0955,0.14297 -0.13831,0.22327 l -0.16352,0.28302 0,-0.0161 c -0.45708,0.78778 -0.97186,1.46788 -1.5818,1.97176 -0.77286,0.61184 -1.611,1.04744 -2.51266,1.30506 -0.90166,0.25762 -1.73665,0.38681 -2.5095,0.38681 -2.47957,0 -4.26693,-0.83814 -5.3618,-2.51266 -1.12708,-1.67451 -1.69187,-3.97545 -1.69187,-6.90586 0,-1.86772 0.27333,-3.47783 0.82077,-4.83033 0.51523,-1.32029 1.2242,-2.4168 2.12586,-3.28626 0.86946,-0.86946 1.8998,-1.51225 3.09128,-1.93088 1.15928,-0.41863 2.38182,-0.62894 3.66993,-0.62894 0.93386,0 1.82005,0.048 2.65731,0.14459 1.8854,0.45075 3.4979,0.92367 5.50644,1.42134 l 0,-3.06298 c -0.86946,-0.32202 -1.98095,-0.61348 -3.33342,-0.87109 -1.3525,-0.28983 -2.75229,-0.43398 -4.20139,-0.43398 -4.44391,0 -7.84137,1.20758 -10.19213,3.62274 -2.35076,2.41517 -3.52526,5.76458 -3.52526,10.04748 0,2.12534 0.25838,3.94577 0.77361,5.45927 0.48304,1.5135 1.17387,2.76915 2.07553,3.76742 0.86946,0.99827 1.93289,1.72219 3.18878,2.17302 1.25588,0.48303 2.64071,0.72329 4.15421,0.72329 2.02874,0 3.6869,-0.4175 4.97498,-1.25476 1.25589,-0.80505 2.22321,-1.72119 2.89946,-2.75166 l 0,14.29603 c 0.19321,0.0322 0.46656,0.0502 0.82079,0.0502 0.35422,0.0322 0.60944,0.0472 0.77045,0.0472 z"
         id="path4213"
         inkscape:connector-curvature="0"
         sodipodi:nodetypes="cccccccccsscscccsccccssscccscccccc" />
      <g
         style="font-style:normal;font-variant:normal;font-weight:normal;font-stretch:normal;font-size:48.30331039px;line-height:125%;font-family:Atmosphere;-inkscape-font-specification:'Atmosphere, Normal';text-align:end;letter-spacing:0px;word-spacing:0px;writing-mode:lr-tb;text-anchor:end;fill:#ffffff;fill-opacity:1;stroke:none;stroke-width:1px;stroke-linecap:butt;stroke-linejoin:miter;stroke-opacity:1"
         id="text4152-4">
        <path
           d="m 335.7704,525.0557 q 1.30419,0.53134 2.8499,0.86946 1.59401,0.28982 3.13971,0.28982 1.11098,0 2.12535,-0.24151 1.01437,-0.24152 1.73892,-0.72455 0.77285,-0.48304 1.20758,-1.15928 0.48304,-0.72455 0.48304,-1.59401 0,-0.96607 -0.38643,-1.59401 -0.33812,-0.62794 -0.96607,-1.06267 -0.57964,-0.43473 -1.40079,-0.72455 -0.77286,-0.33813 -1.69062,-0.62795 l -1.69062,-0.62794 q -3.09141,-1.15928 -4.4922,-2.60838 -1.4008,-1.4491 -1.4008,-3.91257 0,-3.28462 2.31856,-5.21675 2.36686,-1.93214 6.90737,-1.93214 1.88383,0 3.67105,0.38643 1.83553,0.33812 3.18802,0.82116 -0.0966,0.96606 -0.38642,1.93213 -0.24152,0.96607 -0.62795,1.78722 -1.06267,-0.38642 -2.56007,-0.72455 -1.4491,-0.38642 -3.13972,-0.38642 -1.78722,0 -3.18802,0.62794 -1.35249,0.62794 -1.35249,2.22195 0,0.82116 0.33813,1.4008 0.33812,0.57964 0.91776,1.01437 0.57964,0.38642 1.30419,0.67624 0.77285,0.28982 1.64231,0.57964 l 2.12535,0.72455 q 1.15928,0.38643 2.17364,0.91777 1.06268,0.53133 1.78723,1.35249 0.77285,0.77285 1.20758,1.93213 0.48303,1.11098 0.48303,2.70499 0,1.78722 -0.72455,3.28462 -0.72455,1.4491 -2.07704,2.51177 -1.30419,1.01437 -3.18802,1.59401 -1.88383,0.57964 -4.15408,0.57964 -2.31856,0 -4.05748,-0.33812 -1.73892,-0.28982 -3.23632,-0.82116 0.0966,-0.96606 0.38642,-1.93213 0.33813,-1.01437 0.72455,-1.98044 z"
           style="font-style:normal;font-variant:normal;font-weight:normal;font-stretch:normal;font-size:48.30331039px;line-height:125%;font-family:Aller;-inkscape-font-specification:'Aller, Normal';text-align:end;writing-mode:lr-tb;text-anchor:end;fill:#ffffff"
           id="path4269" />
        <path
           d="m 366.63999,529.59622 q -0.38642,0 -0.82115,0 -0.38643,0.0483 -0.77286,0.0483 -0.48303,0 -1.01437,-0.0483 -0.53133,0 -0.86946,-0.0483 l -8.21156,-24.7796 q 0.62794,-0.0966 1.30419,-0.0966 0.67625,-0.0483 1.25589,-0.0483 0.62794,0 1.40079,0.0483 0.77286,0 1.30419,0.0966 l 6.85907,23.04068 7.10059,-23.04068 q 1.01437,-0.14491 2.36686,-0.14491 0.53134,0 1.20758,0.0483 0.67625,0 1.3525,0.0966 l -9.61236,29.80315 q -0.67625,1.98043 -1.4008,3.33293 -0.72455,1.35249 -1.64231,2.17364 -0.91776,0.82116 -2.07704,1.15928 -1.11098,0.33813 -2.60838,0.33813 -1.11098,0 -2.22195,-0.19322 -1.06268,-0.14491 -1.88383,-0.38642 0,-1.11098 0.19321,-1.98044 0.19321,-0.86946 0.57964,-1.73892 0.43473,0.14491 1.15928,0.28982 0.77285,0.19322 1.64231,0.19322 0.62794,0 1.15928,-0.14491 0.57964,-0.0966 1.06267,-0.48304 0.48304,-0.33812 0.86946,-1.01437 0.43473,-0.67624 0.82116,-1.83552 l 1.4974,-4.68542 z"
           style="font-style:normal;font-variant:normal;font-weight:normal;font-stretch:normal;font-size:48.30331039px;line-height:125%;font-family:Aller;-inkscape-font-specification:'Aller, Normal';text-align:end;writing-mode:lr-tb;text-anchor:end;fill:#ffffff"
           id="path4271" />
        <path
           d="m 383.7537,504.76831 q 0.53134,-0.0966 1.01437,-0.14491 0.53134,-0.0483 1.06268,-0.0483 0.53133,0 0.96606,0.0483 0.48303,0.0483 1.01437,0.14491 0.14491,0.72455 0.28982,1.98044 0.14491,1.20758 0.14491,2.02874 0.48303,-0.82116 1.20758,-1.64231 0.77286,-0.82116 1.73892,-1.4491 0.96607,-0.67625 2.22195,-1.06268 1.25589,-0.43473 2.75329,-0.43473 4.25069,0 6.27943,2.46347 2.02874,2.41517 2.02874,7.1972 l 0,15.69857 q -0.53133,0.0966 -1.20758,0.14491 -0.67625,0.0483 -1.20758,0.0483 -0.53134,0 -1.20759,-0.0483 -0.62794,-0.0483 -1.15927,-0.14491 l 0,-14.39438 q 0,-3.42954 -1.06268,-5.02355 -1.06267,-1.64231 -3.38123,-1.64231 -1.35249,0 -2.56007,0.48303 -1.20759,0.48304 -2.12535,1.4974 -0.91776,1.01437 -1.4974,2.65669 -0.53134,1.59401 -0.53134,3.86426 l 0,12.55886 q -0.53134,0.0966 -1.20758,0.14491 -0.62795,0.0483 -1.15928,0.0483 -0.53134,0 -1.20758,-0.0483 -0.67625,-0.0483 -1.20759,-0.14491 l 0,-24.7796 z"
           style="font-style:normal;font-variant:normal;font-weight:normal;font-stretch:normal;font-size:48.30331039px;line-height:125%;font-family:Aller;-inkscape-font-specification:'Aller, Normal';text-align:end;writing-mode:lr-tb;text-anchor:end;fill:#ffffff"
           id="path4273" />
        <path
           d="m 428.19879,525.24892 q 0.38643,0.67624 0.67625,1.69061 0.28982,1.01437 0.33812,2.07705 -2.8499,1.11097 -6.52095,1.11097 -6.18282,0 -9.32254,-3.47784 -3.13971,-3.52614 -3.13971,-9.46744 0,-2.75329 0.77285,-5.12016 0.77285,-2.36686 2.27026,-4.10578 1.5457,-1.73892 3.81596,-2.75329 2.27025,-1.01437 5.26506,-1.01437 2.02874,0 3.57444,0.24152 1.54571,0.24152 2.94651,0.77285 0,0.82116 -0.24152,1.93214 -0.19321,1.06267 -0.57964,1.88383 -2.36686,-0.82116 -5.40997,-0.82116 -3.71936,0 -5.55488,2.46347 -1.83553,2.46347 -1.83553,6.52095 0,4.63711 2.07704,6.81076 2.07705,2.12535 5.69979,2.12535 1.4491,0 2.65669,-0.19322 1.25588,-0.19321 2.51177,-0.67624 z"
           style="font-style:normal;font-variant:normal;font-weight:normal;font-stretch:normal;font-size:48.30331039px;line-height:125%;font-family:Aller;-inkscape-font-specification:'Aller, Normal';text-align:end;writing-mode:lr-tb;text-anchor:end;fill:#ffffff"
           id="path4275" />
      </g>
      <path
         style="font-style:normal;font-variant:normal;font-weight:normal;font-stretch:normal;font-size:48.30331039px;line-height:125%;font-family:Aller;-inkscape-font-specification:'Aller, Normal';text-align:end;letter-spacing:0px;word-spacing:0px;writing-mode:lr-tb;text-anchor:end;fill:#ffffff;fill-opacity:1;stroke:none;stroke-width:1px;stroke-linecap:butt;stroke-linejoin:miter;stroke-opacity:1"
         d="m 289.61986,169.94787 c -0.35422,0 -0.75619,0.0166 -1.20703,0.0488 -0.41862,0.0322 -0.80593,0.0801 -1.16015,0.14453 l 0,24.76562 c 2.46773,-2.80303 4.45837,-6.41013 6.81054,-9.0664 0.61184,-0.54744 1.27203,-0.93475 1.98047,-1.16016 0.74066,-0.25762 1.482,-0.38672 2.22266,-0.38672 2.15754,0 3.70286,0.74136 4.63672,2.22266 0.93386,1.48131 1.40039,3.55769 1.40039,6.23047 0,1.61011 -0.22495,3.01164 -0.67578,4.20312 -0.41863,1.15928 -0.99763,2.12559 -1.73829,2.89844 -0.74064,0.74065 -1.62577,1.30303 -2.65624,1.68945 -0.99827,0.35423 -2.09368,0.53321 -3.28516,0.53321 -0.70845,0 -1.40188,-0.0333 -2.07813,-0.0977 -0.64404,-0.0966 -1.25434,-0.24038 -1.83398,-0.43359 l 0,-0.0273 -4.7832,-1.15039 0,4.41406 c 1.03047,0.35422 2.28627,0.6584 3.76757,0.91602 1.51351,0.28982 2.9796,0.43555 4.39649,0.43555 4.5083,0 7.95297,-1.19126 10.33594,-3.57422 2.41516,-2.41517 3.62304,-5.74932 3.62304,-10 0,-2.12535 -0.25624,-3.96015 -0.77148,-5.50586 -0.48303,-1.57791 -1.17647,-2.86502 -2.07813,-3.86328 -0.90166,-1.03048 -1.98044,-1.78845 -3.23632,-2.27149 -1.25589,-0.48303 -2.62417,-0.72461 -4.10547,-0.72461 -1.73892,0 -3.21968,0.35406 -4.44336,1.0625 -1.22368,0.70846 -2.12544,1.54566 -2.70508,2.51172 l 0,-13.62109 c -0.35423,-0.0644 -0.75816,-0.11233 -1.20899,-0.14453 -0.45083,-0.0322 -0.8528,-0.0488 -1.20703,-0.0488 z"
         id="path4238"
         inkscape:connector-curvature="0"
         sodipodi:nodetypes="scccccssscccsccccccsssccsscccss" />
      <path
         sodipodi:nodetypes="scccccssscccsccccccsssccsscccss"
         inkscape:connector-curvature="0"
         id="path4244"
         d="m 279.50853,224.62755 c 0.35422,0 0.75619,-0.0166 1.20703,-0.0488 0.41862,-0.0322 0.80593,-0.0801 1.16015,-0.14453 l 0,-24.76562 c -2.46773,2.80303 -4.45837,6.41013 -6.81054,9.0664 -0.61184,0.54744 -1.27203,0.93475 -1.98047,1.16016 -0.74066,0.25762 -1.482,0.38672 -2.22266,0.38672 -2.15754,0 -3.70286,-0.74136 -4.63672,-2.22266 -0.93386,-1.48131 -1.40039,-3.55769 -1.40039,-6.23047 0,-1.61011 0.22495,-3.01164 0.67578,-4.20312 0.41863,-1.15928 0.99763,-2.12559 1.73829,-2.89844 0.74064,-0.74065 1.62577,-1.30303 2.65624,-1.68945 0.99827,-0.35423 2.09368,-0.53321 3.28516,-0.53321 0.70845,0 1.40188,0.0333 2.07813,0.0977 0.64404,0.0966 1.25434,0.24038 1.83398,0.43359 l 0,0.0273 4.7832,1.15039 0,-4.41406 c -1.03047,-0.35422 -2.28627,-0.6584 -3.76757,-0.91602 -1.51351,-0.28982 -2.9796,-0.43555 -4.39649,-0.43555 -4.5083,0 -7.95297,1.19126 -10.33594,3.57422 -2.41516,2.41517 -3.62304,5.74932 -3.62304,10 0,2.12535 0.25624,3.96015 0.77148,5.50586 0.48303,1.57791 1.17647,2.86502 2.07813,3.86328 0.90166,1.03048 1.98044,1.78845 3.23632,2.27149 1.25589,0.48303 2.62417,0.72461 4.10547,0.72461 1.73892,0 3.21968,-0.35406 4.44336,-1.0625 1.22368,-0.70846 2.12544,-1.54566 2.70508,-2.51172 l 0,13.62109 c 0.35423,0.0644 0.75816,0.11233 1.20899,0.14453 0.45083,0.0322 0.8528,0.0488 1.20703,0.0488 z"
         style="font-style:normal;font-variant:normal;font-weight:normal;font-stretch:normal;font-size:48.30331039px;line-height:125%;font-family:Aller;-inkscape-font-specification:'Aller, Normal';text-align:end;letter-spacing:0px;word-spacing:0px;writing-mode:lr-tb;text-anchor:end;fill:#ffffff;fill-opacity:1;stroke:none;stroke-width:1px;stroke-linecap:butt;stroke-linejoin:miter;stroke-opacity:1" />
      <g
         style="font-style:normal;font-variant:normal;font-weight:normal;font-stretch:normal;font-size:48.30331039px;line-height:125%;font-family:Atmosphere;-inkscape-font-specification:'Atmosphere, Normal';text-align:end;letter-spacing:0px;word-spacing:0px;writing-mode:lr-tb;text-anchor:end;fill:#ffffff;fill-opacity:1;stroke:none;stroke-width:1px;stroke-linecap:butt;stroke-linejoin:miter;stroke-opacity:1"
         id="text4246">
        <path
           d="m 319.80618,205.29408 q 1.06268,0.43473 2.75331,0.77286 1.69063,0.28982 3.23635,0.28982 2.89823,0 4.58886,-1.2559 1.69063,-1.3042 1.69063,-3.18805 0,-1.3042 -0.53134,-2.12536 -0.48304,-0.86947 -1.3525,-1.44912 -0.82117,-0.57964 -1.88385,-0.91777 -1.06268,-0.38643 -2.17367,-0.77286 -1.20759,-0.38643 -2.41519,-0.86947 -1.15929,-0.48303 -2.07706,-1.20759 -0.91777,-0.77286 -1.49742,-1.83554 -0.53134,-1.06268 -0.53134,-2.65671 0,-2.94653 2.12537,-4.78207 2.17367,-1.83554 6.66592,-1.83554 1.88384,0 3.62278,0.33812 1.78724,0.33813 2.75331,0.72456 -0.24151,1.40081 -0.67625,2.75331 -1.01438,-0.33812 -2.6084,-0.67625 -1.54572,-0.33813 -3.23635,-0.33813 -2.94653,0 -4.20243,1.06269 -1.20759,1.01438 -1.20759,2.70501 0,0.91777 0.38643,1.59402 0.43473,0.62795 1.11098,1.11099 0.72456,0.43473 1.59403,0.77286 0.91777,0.33812 1.93215,0.62795 1.3042,0.43473 2.6084,0.96607 1.3525,0.48304 2.41519,1.3042 1.11098,0.82117 1.78724,2.07707 0.72455,1.25589 0.72455,3.13974 0,1.73894 -0.72455,3.18805 -0.67626,1.40081 -1.93215,2.41519 -1.2559,0.96607 -2.99484,1.49741 -1.73893,0.53134 -3.81599,0.53134 -2.31858,0 -4.15413,-0.28982 -1.78724,-0.28982 -2.89822,-0.77286 0.28982,-1.44911 0.91777,-2.89822 z"
           style="font-style:normal;font-variant:normal;font-weight:normal;font-stretch:normal;font-size:48.30376053px;line-height:125%;font-family:'Aller Light';-inkscape-font-specification:'Aller Light, Normal';text-align:end;writing-mode:lr-tb;text-anchor:end;fill:#ffffff"
           id="path4260" />
        <path
           d="m 350.43907,208.77195 -0.91778,0 q -0.43473,0 -1.01438,-0.0483 -0.53134,0 -0.82116,-0.0483 l -8.88789,-24.63492 q 0.28982,-0.0483 0.82116,-0.0483 0.53134,-0.0483 1.01438,-0.0483 0.38643,0 0.96608,0.0483 0.57964,0 0.86946,0.0483 l 8.16334,23.95867 8.01842,-23.95867 q 0.28983,-0.0483 0.77286,-0.0483 0.48304,-0.0483 0.86947,-0.0483 0.38643,0 0.86947,0.0483 0.48304,0 0.77286,0.0483 l -10.82004,31.92879 q -0.86947,2.6567 -2.46349,3.71939 -1.59403,1.06268 -3.7677,1.06268 -1.01438,0 -2.07706,-0.19322 -1.01438,-0.19321 -1.69063,-0.38643 0,-1.49741 0.72456,-2.70501 0.38643,0.14491 1.15929,0.28983 0.77286,0.19321 1.73893,0.19321 1.40081,0 2.22197,-0.67625 0.86947,-0.67625 1.49742,-2.5118 l 1.98046,-5.98966 z"
           style="font-style:normal;font-variant:normal;font-weight:normal;font-stretch:normal;font-size:48.30376053px;line-height:125%;font-family:'Aller Light';-inkscape-font-specification:'Aller Light, Normal';text-align:end;writing-mode:lr-tb;text-anchor:end;fill:#ffffff"
           id="path4262" />
        <path
           d="m 367.18236,184.04042 q 0.38643,-0.0483 0.72455,-0.0483 0.38643,-0.0483 0.72456,-0.0483 0.38643,0 0.72455,0.0483 0.33813,0 0.72456,0.0483 0.0966,0.86947 0.14491,2.17367 0.0483,1.3042 0.0483,2.27028 0.48303,-0.86947 1.25589,-1.73894 0.77286,-0.91777 1.78724,-1.64233 1.06269,-0.72455 2.41519,-1.15929 1.35251,-0.48303 2.94653,-0.48303 4.25073,0 6.18288,2.5601 1.93215,2.51179 1.93215,7.10065 l 0,15.55381 q -0.28982,0.0483 -0.82116,0.0483 -0.48304,0.0483 -0.77286,0.0483 -0.24152,0 -0.77286,-0.0483 -0.53134,0 -0.82117,-0.0483 l 0,-14.58774 q 0,-4.10582 -1.3042,-5.89306 -1.2559,-1.78723 -3.81599,-1.78723 -1.69064,0 -3.18805,0.67625 -1.49742,0.67625 -2.60841,1.98045 -1.06268,1.2559 -1.69063,3.13975 -0.62795,1.88384 -0.62795,4.29903 l 0,12.17255 q -0.28982,0.0483 -0.82116,0.0483 -0.48304,0.0483 -0.77286,0.0483 -0.24152,0 -0.77286,-0.0483 -0.53134,0 -0.82116,-0.0483 l 0,-24.63492 z"
           style="font-style:normal;font-variant:normal;font-weight:normal;font-stretch:normal;font-size:48.30376053px;line-height:125%;font-family:'Aller Light';-inkscape-font-specification:'Aller Light, Normal';text-align:end;writing-mode:lr-tb;text-anchor:end;fill:#ffffff"
           id="path4264" />
        <path
           d="m 411.15161,205.5839 q 0.24152,0.48304 0.43473,1.3042 0.24152,0.82116 0.33813,1.3525 -1.2076,0.43474 -2.75332,0.72456 -1.54572,0.28982 -3.42956,0.28982 -6.03797,0 -9.17772,-3.28465 -3.13974,-3.33296 -3.13974,-9.61245 0,-2.75331 0.77286,-5.0719 0.77286,-2.36688 2.27028,-4.10581 1.49741,-1.73894 3.71938,-2.70502 2.27028,-1.01437 5.21681,-1.01437 1.83554,0 3.47787,0.28982 1.69063,0.24152 2.65671,0.57964 0,0.62795 -0.19322,1.44912 -0.14491,0.82116 -0.33812,1.3042 -0.96608,-0.33813 -2.46349,-0.57965 -1.44912,-0.24152 -3.13975,-0.24152 -2.17367,0 -3.816,0.77286 -1.59402,0.72456 -2.70501,2.07707 -1.06268,1.3525 -1.59402,3.18804 -0.53134,1.83555 -0.53134,4.05752 0,5.21681 2.46349,7.6803 2.5118,2.41519 6.76253,2.41519 1.44911,0 2.75331,-0.24152 1.35251,-0.24152 2.41519,-0.62795 z"
           style="font-style:normal;font-variant:normal;font-weight:normal;font-stretch:normal;font-size:48.30376053px;line-height:125%;font-family:'Aller Light';-inkscape-font-specification:'Aller Light, Normal';text-align:end;writing-mode:lr-tb;text-anchor:end;fill:#ffffff"
           id="path4266" />
      </g>
    </g>
  </g>
</svg>
